<svg width="40" height="40" viewBox="0 0 40 40" fill="none" xmlns="http://www.w3.org/2000/svg">
<g opacity="0.7">
<mask id="mask0_111_4" style="mask-type:alpha" maskUnits="userSpaceOnUse" x="0" y="0" width="40" height="40">
<rect width="40" height="40" fill="#D9D9D9"/>
</mask>
<g mask="url(#mask0_111_4)">
<path opacity="0.7" d="M6.70992 33.3337C5.79223 33.3337 5.00663 33.0073 4.35312 32.3545C3.69962 31.7017 3.37286 30.917 3.37286 30.0003V10.0003C3.37286 9.08366 3.69962 8.29894 4.35312 7.64616C5.00663 6.99338 5.79223 6.66699 6.70992 6.66699H33.4064C34.3241 6.66699 35.1097 6.99338 35.7632 7.64616C36.4167 8.29894 36.7434 9.08366 36.7434 10.0003V30.0003C36.7434 30.917 36.4167 31.7017 35.7632 32.3545C35.1097 33.0073 34.3241 33.3337 33.4064 33.3337H6.70992ZM20.0582 21.667L6.70992 13.3337V30.0003H33.4064V13.3337L20.0582 21.667ZM20.0582 18.3337L33.4064 10.0003H6.70992L20.0582 18.3337ZM6.70992 13.3337V10.0003V30.0003V13.3337Z" fill="#222222"/>
</g>
</g>
</svg>
