<svg width="33" height="33" viewBox="0 0 33 33" fill="none" xmlns="http://www.w3.org/2000/svg">
<path d="M16.5565 16.4998C14.3678 16.4998 12.4942 15.7214 10.9355 14.1645C9.37692 12.6076 8.59762 10.736 8.59762 8.54979C8.59762 6.36354 9.37692 4.49198 10.9355 2.93511C12.4942 1.37823 14.3678 0.599792 16.5565 0.599792C18.7452 0.599792 20.6188 1.37823 22.1775 2.93511C23.7361 4.49198 24.5154 6.36354 24.5154 8.54979C24.5154 10.736 23.7361 12.6076 22.1775 14.1645C20.6188 15.7214 18.7452 16.4998 16.5565 16.4998ZM0.638733 32.3998V26.8348C0.638733 25.7085 0.9289 24.6734 1.50924 23.7293C2.08957 22.7853 2.86059 22.0648 3.82229 21.5679C5.87833 20.541 7.96754 19.7709 10.0899 19.2574C12.2123 18.744 14.3678 18.4873 16.5565 18.4873C18.7452 18.4873 20.9007 18.744 23.0231 19.2574C25.1455 19.7709 27.2347 20.541 29.2907 21.5679C30.2524 22.0648 31.0234 22.7853 31.6038 23.7293C32.1841 24.6734 32.4743 25.7085 32.4743 26.8348V32.3998H0.638733ZM4.61817 28.4248H28.4948V26.8348C28.4948 26.4704 28.4036 26.1392 28.2212 25.841C28.0388 25.5429 27.7984 25.311 27.5 25.1454C25.7092 24.251 23.9019 23.5803 22.078 23.1331C20.2541 22.6859 18.4136 22.4623 16.5565 22.4623C14.6994 22.4623 12.8589 22.6859 11.035 23.1331C9.21111 23.5803 7.40378 24.251 5.61303 25.1454C5.31458 25.311 5.07415 25.5429 4.89176 25.841C4.70937 26.1392 4.61817 26.4704 4.61817 26.8348V28.4248ZM16.5565 12.5248C17.6508 12.5248 18.5877 12.1356 19.367 11.3571C20.1463 10.5787 20.5359 9.64292 20.5359 8.54979C20.5359 7.45667 20.1463 6.52089 19.367 5.74245C18.5877 4.96401 17.6508 4.57479 16.5565 4.57479C15.4622 4.57479 14.5253 4.96401 13.746 5.74245C12.9667 6.52089 12.5771 7.45667 12.5771 8.54979C12.5771 9.64292 12.9667 10.5787 13.746 11.3571C14.5253 12.1356 15.4622 12.5248 16.5565 12.5248Z" fill="#222222"/>
</svg>
