<svg width="42" height="42" viewBox="0 0 42 42" fill="none" xmlns="http://www.w3.org/2000/svg">
<circle cx="21" cy="21" r="21" fill="#164CA4"/>
<mask id="mask0_51_245" style="mask-type:alpha" maskUnits="userSpaceOnUse" x="8" y="8" width="25" height="25">
<rect x="8" y="8" width="25" height="25" fill="#D9D9D9"/>
</mask>
<g mask="url(#mask0_51_245)">
<path d="M20.5 20.5C19.4688 20.5 18.5859 20.1328 17.8516 19.3984C17.1172 18.6641 16.75 17.7812 16.75 16.75C16.75 15.7188 17.1172 14.8359 17.8516 14.1016C18.5859 13.3672 19.4688 13 20.5 13C21.5312 13 22.4141 13.3672 23.1484 14.1016C23.8828 14.8359 24.25 15.7188 24.25 16.75C24.25 17.7812 23.8828 18.6641 23.1484 19.3984C22.4141 20.1328 21.5312 20.5 20.5 20.5ZM13 28V25.375C13 24.8438 13.1367 24.3555 13.4102 23.9102C13.6836 23.4648 14.0469 23.125 14.5 22.8906C15.4688 22.4062 16.4531 22.043 17.4531 21.8008C18.4531 21.5586 19.4688 21.4375 20.5 21.4375C21.5312 21.4375 22.5469 21.5586 23.5469 21.8008C24.5469 22.043 25.5313 22.4062 26.5 22.8906C26.9531 23.125 27.3164 23.4648 27.5898 23.9102C27.8633 24.3555 28 24.8438 28 25.375V28H13ZM14.875 26.125H26.125V25.375C26.125 25.2031 26.082 25.0469 25.9961 24.9062C25.9102 24.7656 25.7969 24.6562 25.6562 24.5781C24.8125 24.1562 23.9609 23.8398 23.1016 23.6289C22.2422 23.418 21.375 23.3125 20.5 23.3125C19.625 23.3125 18.7578 23.418 17.8984 23.6289C17.0391 23.8398 16.1875 24.1562 15.3438 24.5781C15.2031 24.6562 15.0898 24.7656 15.0039 24.9062C14.918 25.0469 14.875 25.2031 14.875 25.375V26.125ZM20.5 18.625C21.0156 18.625 21.457 18.4414 21.8242 18.0742C22.1914 17.707 22.375 17.2656 22.375 16.75C22.375 16.2344 22.1914 15.793 21.8242 15.4258C21.457 15.0586 21.0156 14.875 20.5 14.875C19.9844 14.875 19.543 15.0586 19.1758 15.4258C18.8086 15.793 18.625 16.2344 18.625 16.75C18.625 17.2656 18.8086 17.707 19.1758 18.0742C19.543 18.4414 19.9844 18.625 20.5 18.625Z" fill="white"/>
</g>
</svg>
